<svg width="54" height="64" viewBox="0 0 54 64" fill="none" xmlns="http://www.w3.org/2000/svg">
<g clip-path="url(#clip0_6973_13574)">
<path d="M0 19.1328V44.8689C0 47.1073 1.12944 49.1743 2.96169 50.2935L24.0375 63.1606C25.8697 64.2798 28.1286 64.2798 29.9609 63.1606L51.0367 50.2935C52.8689 49.1743 53.9984 47.1055 53.9984 44.8689V19.1328C53.9984 16.8945 52.8689 14.8275 51.0367 13.7083L29.9625 0.83939C28.1303 -0.279797 25.8714 -0.279797 24.0391 0.83939L2.96169 13.7065C1.12944 14.8257 0 16.8945 0 19.1328Z" fill="#3465E6"/>
<g clip-path="url(#clip1_6973_13574)">
<path d="M41.6819 30.5748C41.6819 22.1951 34.8873 15.3779 26.5353 15.3779C18.1833 15.3779 11.3887 22.1951 11.3887 30.5748C11.3887 35.2994 13.55 39.5285 16.9339 42.3177L17.8287 40.3601C15.1466 37.9537 13.4522 34.4605 13.4522 30.5748C13.4522 23.3357 19.3226 17.4483 26.5353 17.4483C33.748 17.4483 39.6184 23.3382 39.6184 30.5748C39.6184 34.4605 37.9264 37.9561 35.2419 40.3601L36.1367 42.3177C39.5181 39.5285 41.6819 35.2994 41.6819 30.5748Z" fill="white"/>
<path d="M26.5354 12C16.3154 12 8 20.3429 8 30.5968C8 36.6805 10.9266 42.092 15.4425 45.4871L16.3374 43.5295C12.5354 40.5048 10.088 35.8342 10.088 30.5968C10.088 21.4983 17.4669 14.0949 26.5354 14.0949C35.6038 14.0949 42.9827 21.4983 42.9827 30.5968C42.9827 35.8317 40.5377 40.5048 36.7334 43.5295L37.6282 45.4871C42.1441 42.092 45.0707 36.6805 45.0707 30.5968C45.0732 20.3429 36.7578 12 26.5354 12Z" fill="white"/>
<path d="M34.7021 39.1728C36.9661 37.0068 38.3842 33.9551 38.3842 30.5748C38.3842 24.0201 33.0713 18.6896 26.5383 18.6896C20.0053 18.6896 14.6924 24.0201 14.6924 30.5748C14.6924 33.9551 16.108 37.0068 18.3721 39.1728L19.2914 37.1613C17.7168 35.4172 16.7535 33.1064 16.7535 30.5723C16.7535 25.1608 21.1422 20.7575 26.5358 20.7575C31.9295 20.7575 36.3182 25.1608 36.3182 30.5723C36.3182 33.1064 35.3573 35.4172 33.7803 37.1613L34.6996 39.1728H34.7021Z" fill="white"/>
<path d="M26.5351 33.5356C28.1649 33.5356 29.4862 32.21 29.4862 30.5748C29.4862 28.9395 28.1649 27.6139 26.5351 27.6139C24.9052 27.6139 23.584 28.9395 23.584 30.5748C23.584 32.21 24.9052 33.5356 26.5351 33.5356Z" fill="white"/>
<path d="M28.7405 33.7613L30.3273 37.2397H27.5694V34.3108C27.2418 34.4015 26.8946 34.4555 26.5376 34.4555C26.1806 34.4555 25.8359 34.404 25.5058 34.3108V37.2397H22.8286L24.3958 33.8054C23.7479 33.3712 23.2393 32.7457 22.9459 32.0098L13.8213 51.9975H16.0902L19.1562 45.2785H25.5034V51.9975H27.5669V45.2785H33.9899L37.0534 51.9975H39.3224L30.1635 31.9067C29.8872 32.6623 29.386 33.3074 28.7405 33.7588V33.7613ZM31.2075 39.1728L31.7601 40.3846H27.5669V39.1728H31.2075ZM25.5058 39.1728V40.3846H21.3934L21.9459 39.1728H25.5058ZM20.0413 43.3455L20.5107 42.3176H25.5058V43.3455H20.0413ZM27.5694 43.3455V42.3176H32.6427L33.1121 43.3455H27.5694Z" fill="white"/>
<g style="mix-blend-mode:multiply">
<path d="M42.985 30.5968C42.985 35.8342 40.54 40.5048 36.7356 43.5295L37.6305 45.4871C42.1463 42.092 45.073 36.6805 45.073 30.5968C45.073 20.3429 36.7576 12 26.5352 12V14.0949C35.6036 14.0949 42.9825 21.4983 42.9825 30.5968H42.985Z" fill="#CBE0FF"/>
<path d="M34.7019 39.1728C36.9659 37.0068 38.384 33.9551 38.384 30.5748C38.384 24.0201 33.0711 18.6896 26.5381 18.6896V20.76C31.9317 20.76 36.3204 25.1633 36.3204 30.5748C36.3204 33.1088 35.3596 35.4196 33.7825 37.1638L34.7019 39.1753V39.1728Z" fill="#CBE0FF"/>
<path d="M27.5674 45.2809H33.9904L37.0539 51.9999H39.3229L30.164 31.9092C29.8877 32.6647 29.3865 33.3099 28.741 33.7613L30.3278 37.2397H27.5699V34.3107C27.2422 34.4015 26.8951 34.4555 26.5381 34.4555V51.9999H27.5699V45.2809H27.5674ZM27.5674 39.1752H31.208L31.7606 40.387H27.5674V39.1752ZM27.5674 42.3201H32.6407L33.1102 43.3479H27.5674V42.3201Z" fill="#CBE0FF"/>
<path d="M29.4862 30.5748C29.4862 28.9386 28.166 27.6139 26.5352 27.6139V33.5356C28.166 33.5356 29.4862 32.211 29.4862 30.5748Z" fill="#CBE0FF"/>
<path d="M41.6818 30.5748C41.6818 22.1951 34.8872 15.3779 26.5352 15.3779V17.4483C33.7503 17.4483 39.6182 23.3382 39.6182 30.5748C39.6182 34.4605 37.9263 37.9561 35.2417 40.3601L36.1366 42.3177C39.518 39.5285 41.6818 35.2994 41.6818 30.5748Z" fill="#CBE0FF"/>
</g>
</g>
</g>
<defs>
<clipPath id="clip0_6973_13574">
<rect width="54" height="64" fill="white"/>
</clipPath>
<clipPath id="clip1_6973_13574">
<rect width="37.0732" height="40" fill="white" transform="translate(8 12)"/>
</clipPath>
</defs>
</svg>
